<?xml version="1.0" encoding="UTF-8"?>
<svg xmlns="http://www.w3.org/2000/svg" width="256" height="256" viewBox="0 0 256 256">
  <defs>
    <linearGradient id="bg" x1="0" y1="0" x2="1" y2="1">
      <stop offset="0%" stop-color="#1677ff"/>
      <stop offset="100%" stop-color="#69b1ff"/>
    </linearGradient>
    <clipPath id="circle">
      <circle cx="128" cy="128" r="120"/>
    </clipPath>
  </defs>
  <rect width="256" height="256" fill="url(#bg)"/>
  <g clip-path="url(#circle)">
    <rect x="0" y="0" width="256" height="256" fill="url(#bg)"/>
    <circle cx="128" cy="92" r="40" fill="#ffffff" opacity="0.95"/>
    <path d="M32 220c0-44 40-72 96-72s96 28 96 72" fill="#ffffff" opacity="0.95"/>
    <circle cx="128" cy="92" r="36" fill="#f5f7fa"/>
    <path d="M64 220c16-28 48-44 64-44s48 16 64 44" fill="#f5f7fa"/>
    <circle cx="128" cy="92" r="6" fill="#1677ff"/>
  </g>
  <g transform="translate(156,156)">
    <rect x="-24" y="-24" rx="8" ry="8" width="48" height="48" fill="#faad14"/>
    <path d="M0 -14 L4 -2 L16 -2 L6 4 L10 16 L0 8 L-10 16 L-6 4 L-16 -2 L-4 -2 Z" fill="#ffffff"/>
  </g>
  <text x="128" y="240" text-anchor="middle" font-family="Arial, Helvetica, sans-serif" font-size="20" fill="#ffffff" opacity="0.9">ADMIN</text>
</svg>
